# xmcd
#
# Track frame offsets: 
#        300
#        16449
#        34708
#        54821
#        71736
#        88643
#        101914
#        126999
#        149549
#        172516
#        190421
#
# Disc length: 2857 seconds
#
# Revision: 0
# Processed by: cddbd v1.5.2PL0 Copyright (c) Steve Scherf et al.
# Submitted via: ExactAudioCopy v1.0b1
#
DISCID=960b250b
DTITLE=The Jeff Healey Band - House On Fire (Demos and Rarities)
DYEAR=2013
DGENRE=Blues Rock
TTITLE0=House On Fire
TTITLE1=Who's Been Sleepin' In My Bed
TTITLE2=You Go Your Way, I'll Go Mine
TTITLE3=All The Way
TTITLE4=We've Got Tonight
TTITLE5=Bish Bang Boof
TTITLE6=Too Late Now
TTITLE7=Face Up
TTITLE8=Adam Raised A Cain
TTITLE9=Daze Of The Night
TTITLE10=Joined At The Heart
EXTD=
EXTT0=
EXTT1=
EXTT2=
EXTT3=
EXTT4=
EXTT5=
EXTT6=
EXTT7=
EXTT8=
EXTT9=
EXTT10=
PLAYORDER=
